<?xml version="1.0" standalone="no"?><!DOCTYPE svg PUBLIC "-//W3C//DTD SVG 1.1//EN" "http://www.w3.org/Graphics/SVG/1.1/DTD/svg11.dtd"><svg class="icon" width="200px" height="200.00px" viewBox="0 0 1024 1024" version="1.1" xmlns="http://www.w3.org/2000/svg"><path fill="#ffffff" d="M428.455235 141.804656c0-28.67611 11.741415-57.127092 32.063253-77.222779 20.321838-20.321838 48.771797-32.063253 77.222779-32.063253 28.67611 0 57.127092 11.741415 77.222779 32.063253 20.321838 20.321838 32.063253 48.771797 32.063253 77.222779 0 28.67611-11.741415 57.127092-32.063253 77.222779-20.321838 20.321838-48.771797 32.063253-77.222779 32.063253-28.67611 0-57.127092-11.741415-77.222779-32.063253C440.421778 198.705598 428.455235 170.255639 428.455235 141.804656L428.455235 141.804656zM537.966395 271.864828c-71.803349 0-130.285299-58.481949-130.285299-130.285299s58.481949-130.285299 130.285299-130.285299 130.285299 58.481949 130.285299 130.285299C668.025543 213.609029 609.770767 271.864828 537.966395 271.864828L537.966395 271.864828zM537.966395 53.292764c-48.771797 0-88.512916 39.740096-88.512916 88.512916s39.740096 88.512916 88.512916 88.512916 88.512916-39.740096 88.512916-88.512916C626.479311 93.03286 586.739215 53.292764 537.966395 53.292764L537.966395 53.292764zM162.691359 256.283967c0-25.741267 10.612709-51.256384 28.67611-69.319785 18.063401-18.063401 43.578518-28.67611 69.319785-28.67611s51.256384 10.612709 69.319785 28.67611c18.063401 18.063401 28.67611 43.578518 28.67611 69.319785s-10.612709 51.256384-28.67611 69.319785c-18.063401 18.063401-43.578518 28.67611-69.319785 28.67611s-51.256384-10.612709-69.319785-28.67611C173.304068 307.540352 162.691359 282.025235 162.691359 256.283967L162.691359 256.283967zM260.687254 375.279129c-65.481364 0-118.995161-53.28867-118.995161-118.995161 0-65.481364 53.28867-118.995161 118.995161-118.995161 65.481364 0 118.995161 53.28867 118.995161 118.995161C379.682415 321.991482 326.394768 375.279129 260.687254 375.279129L260.687254 375.279129zM260.687254 179.061189c-42.449811 0-77.222779 34.546817-77.222779 77.222779s34.546817 77.222779 77.222779 77.222779 77.222779-34.546817 77.222779-77.222779C337.910033 213.834156 303.363216 179.061189 260.687254 179.061189L260.687254 179.061189zM58.824757 539.434839c0-21.902846 9.031701-43.804668 24.611537-59.384505 15.579837-15.579837 37.482683-24.611537 59.384505-24.611537s43.804668 9.031701 59.384505 24.611537c15.579837 15.579837 24.611537 37.482683 24.611537 59.384505s-9.031701 43.804668-24.611537 59.384505c-15.35471 15.579837-37.256532 24.611537-59.159378 24.611537-21.902846 0-43.804668-9.031701-59.384505-24.611537C67.856457 583.239508 58.824757 561.336662 58.824757 539.434839L58.824757 539.434839zM143.04695 644.430148c-57.804521 0-104.996332-46.965661-104.996332-104.996332 0-57.804521 46.965661-104.996332 104.996332-104.996332s104.996332 46.965661 104.996332 104.996332C247.817132 597.238336 200.851471 644.430148 143.04695 644.430148L143.04695 644.430148zM143.04695 476.210889c-34.772968 0-63.222927 28.450982-63.222927 63.222927s28.450982 63.222927 63.222927 63.222927 63.222927-28.449959 63.222927-63.222927C206.04475 504.661871 177.819918 476.210889 143.04695 476.210889L143.04695 476.210889zM192.722326 821.907259c0-17.838274 7.225565-35.450397 19.87056-48.095391 12.644995-12.644995 30.257118-19.87056 48.095391-19.87056 17.838274 0 35.450397 7.225565 48.095391 19.87056 12.644995 12.644995 19.87056 30.257118 19.87056 48.095391 0 17.838274-7.451716 35.450397-19.87056 48.095391-12.644995 12.644995-30.257118 19.87056-48.095391 19.87056-17.838274 0-35.450397-7.225565-48.095391-19.87056C199.947891 857.357656 192.722326 839.745533 192.722326 821.907259L192.722326 821.907259zM260.687254 910.871453c-48.997947 0-88.964194-39.966247-88.964194-88.964194 0-48.997947 39.966247-88.964194 88.964194-88.964194 48.997947 0 88.964194 39.966247 88.964194 88.964194C349.651448 870.905206 309.685201 910.871453 260.687254 910.871453L260.687254 910.871453zM260.687254 774.715447c-25.966395 0-47.191812 21.225417-47.191812 47.191812 0 25.966395 21.225417 47.191812 47.191812 47.191812s47.191812-21.225417 47.191812-47.191812C307.879066 795.940864 286.653649 774.715447 260.687254 774.715447L260.687254 774.715447zM481.065454 935.031712c0-14.902408 6.096858-29.579689 16.708544-40.192398 10.612709-10.612709 25.288966-16.708544 40.192398-16.708544s29.579689 6.096858 40.192398 16.708544 16.708544 25.288966 16.708544 40.192398-6.096858 29.579689-16.708544 40.192398c-10.612709 10.612709-25.288966 16.708544-40.192398 16.708544s-29.579689-6.096858-40.192398-16.708544C487.162312 964.611401 481.065454 949.934121 481.065454 935.031712L481.065454 935.031712zM537.966395 1012.705769c-42.901089 0-77.674057-34.772968-77.674057-77.674057 0-42.901089 34.772968-77.674057 77.674057-77.674057 42.901089 0 77.674057 34.772968 77.674057 77.674057C615.641475 977.707674 580.868507 1012.705769 537.966395 1012.705769L537.966395 1012.705769zM537.966395 898.903887c-19.87056 0-35.901675 16.032138-35.901675 35.901675 0 19.87056 16.032138 35.901675 35.901675 35.901675 19.87056 0 35.901675-16.032138 35.901675-35.901675C573.868069 915.161153 557.836955 898.903887 537.966395 898.903887L537.966395 898.903887zM777.312598 818.746266c0-11.063987 4.51585-21.902846 12.192693-29.579689 7.676843-7.676843 18.74083-12.192693 29.579689-12.192693s21.902846 4.51585 29.579689 12.192693c7.676843 7.676843 12.192693 18.74083 12.192693 29.579689s-4.51585 21.902846-12.192693 29.579689c-7.676843 7.676843-18.74083 12.192693-29.579689 12.192693s-21.902846-4.51585-29.579689-12.192693C781.828448 840.422961 777.312598 829.584102 777.312598 818.746266L777.312598 818.746266zM819.310108 881.517915c-34.546817 0-62.771649-28.224832-62.771649-62.771649 0-34.546817 28.224832-62.771649 62.771649-62.771649 34.546817 0 62.771649 28.224832 62.771649 62.771649C882.081757 853.293083 853.857948 881.517915 819.310108 881.517915L819.310108 881.517915zM819.310108 797.747c-11.515265 0-20.999266 9.484002-20.999266 20.999266s9.484002 20.999266 20.999266 20.999266 20.999266-9.484002 20.999266-20.999266C840.309374 807.004851 830.826396 797.747 819.310108 797.747L819.310108 797.747zM903.984602 539.886117c0-7.902994 3.387144-16.032138 9.031701-21.676695 5.644557-5.644557 13.547551-9.031701 21.676695-9.031701 7.902994 0 16.032138 3.387144 21.676695 9.031701 5.644557 5.644557 9.031701 13.547551 9.031701 21.676695 0 7.902994-3.387144 16.032138-9.031701 21.676695-5.644557 5.644557-13.547551 9.031701-21.676695 9.031701-7.902994 0-16.032138-3.387144-21.676695-9.031701C907.145595 555.917232 903.984602 547.789111 903.984602 539.886117L903.984602 539.886117zM934.466847 591.367629c-28.449959 0-51.481512-23.031553-51.481512-51.481512 0-28.450982 23.031553-51.481512 51.481512-51.481512s51.481512 23.031553 51.481512 51.481512C985.949382 568.336076 962.91783 591.367629 934.466847 591.367629L934.466847 591.367629zM934.466847 530.176988c-5.41943 0-9.709129 4.2897-9.709129 9.709129s4.2897 9.709129 9.709129 9.709129c5.41943 0 9.709129-4.2897 9.709129-9.709129S939.886277 530.176988 934.466847 530.176988L934.466847 530.176988zM800.118 260.122389c0-4.967128 2.032286-9.93528 5.644557-13.547551s8.580422-5.644557 13.547551-5.644557c4.967128 0 9.93528 2.032286 13.547551 5.644557 3.612271 3.612271 5.644557 8.580422 5.644557 13.547551 0 4.967128-2.032286 9.93528-5.644557 13.547551-3.612271 3.612271-8.580422 5.644557-13.547551 5.644557-4.967128 0-9.93528-2.032286-13.547551-5.644557C802.150286 270.28382 800.118 265.316691 800.118 260.122389L800.118 260.122389zM779.343861 260.122389c0-10.386558 4.290723-20.773116 11.741415-28.224832s17.838274-11.741415 28.224832-11.741415 20.773116 4.2897 28.224832 11.741415c7.451716 7.451716 11.741415 17.838274 11.741415 28.224832 0 10.386558-4.290723 20.773116-11.741415 28.224832s-17.838274 11.741415-28.224832 11.741415-20.773116-4.2897-28.224832-11.741415C783.634584 281.121656 779.343861 270.735098 779.343861 260.122389L779.343861 260.122389z"  /></svg>